<svg width="133" height="12" viewBox="0 0 133 12" fill="none" xmlns="http://www.w3.org/2000/svg">
<path d="M1.82 6.1C1.82 5.33467 1.988 4.66733 2.324 4.098C2.66933 3.51933 3.11733 3.06667 3.668 2.74C4.21867 2.41333 4.816 2.25 5.46 2.25C5.92667 2.25 6.35133 2.31067 6.734 2.432C7.126 2.55333 7.48067 2.726 7.798 2.95C8.11533 3.16467 8.386 3.41667 8.61 3.706V2.138C8.19933 1.774 7.75133 1.50333 7.266 1.326C6.78067 1.14867 6.17867 1.06 5.46 1.06C4.77867 1.06 4.13933 1.186 3.542 1.438C2.954 1.68067 2.436 2.03067 1.988 2.488C1.54 2.936 1.19 3.468 0.938 4.084C0.686 4.7 0.56 5.372 0.56 6.1C0.56 6.828 0.686 7.5 0.938 8.116C1.19 8.732 1.54 9.26867 1.988 9.726C2.436 10.174 2.954 10.524 3.542 10.776C4.13933 11.0187 4.77867 11.14 5.46 11.14C6.17867 11.14 6.78067 11.0513 7.266 10.874C7.75133 10.6967 8.19933 10.426 8.61 10.062V8.494C8.386 8.78333 8.11533 9.04 7.798 9.264C7.48067 9.47867 7.126 9.64667 6.734 9.768C6.35133 9.88933 5.92667 9.95 5.46 9.95C4.816 9.95 4.21867 9.78667 3.668 9.46C3.11733 9.13333 2.66933 8.68067 2.324 8.102C1.988 7.52333 1.82 6.856 1.82 6.1ZM11.5402 2.32H14.0602V11H15.2502V2.32H17.7702V1.2H11.5402V2.32ZM20.8114 8.06H25.9914L25.5714 6.94H21.2314L20.8114 8.06ZM23.3734 3.412L25.0534 7.36L25.1654 7.64L26.5934 11H27.9234L23.3734 0.71L18.8234 11H20.1534L21.6094 7.556L21.7214 7.304L23.3734 3.412ZM29.3912 2.32H31.9112V11H33.1012V2.32H35.6212V1.2H29.3912V2.32ZM46.3329 1.2H45.0029L42.0349 7.724L42.7769 7.78L39.8929 1.2H38.4229L41.6569 8.102L40.3969 11H41.7269L46.3329 1.2ZM50.1938 6.1C50.1938 5.33467 50.3618 4.66733 50.6978 4.098C51.0432 3.51933 51.4912 3.06667 52.0418 2.74C52.5925 2.41333 53.1898 2.25 53.8338 2.25C54.3005 2.25 54.7252 2.31067 55.1078 2.432C55.4998 2.55333 55.8545 2.726 56.1718 2.95C56.4892 3.16467 56.7598 3.41667 56.9838 3.706V2.138C56.5732 1.774 56.1252 1.50333 55.6398 1.326C55.1545 1.14867 54.5525 1.06 53.8338 1.06C53.1525 1.06 52.5132 1.186 51.9158 1.438C51.3278 1.68067 50.8098 2.03067 50.3618 2.488C49.9138 2.936 49.5638 3.468 49.3118 4.084C49.0598 4.7 48.9338 5.372 48.9338 6.1C48.9338 6.828 49.0598 7.5 49.3118 8.116C49.5638 8.732 49.9138 9.26867 50.3618 9.726C50.8098 10.174 51.3278 10.524 51.9158 10.776C52.5132 11.0187 53.1525 11.14 53.8338 11.14C54.5525 11.14 55.1545 11.0513 55.6398 10.874C56.1252 10.6967 56.5732 10.426 56.9838 10.062V8.494C56.7598 8.78333 56.4892 9.04 56.1718 9.264C55.8545 9.47867 55.4998 9.64667 55.1078 9.768C54.7252 9.88933 54.3005 9.95 53.8338 9.95C53.1898 9.95 52.5925 9.78667 52.0418 9.46C51.4912 9.13333 51.0432 8.68067 50.6978 8.102C50.3618 7.52333 50.1938 6.856 50.1938 6.1ZM68.5978 1.2V11H69.7878V1.2H68.5978ZM61.3178 1.2V11H62.5078V1.2H61.3178ZM61.9758 6.24H63.9778C64.3978 6.24 64.7665 6.31 65.0838 6.45C65.4105 6.58067 65.6625 6.78133 65.8398 7.052C66.0265 7.32267 66.1198 7.65867 66.1198 8.06C66.1198 8.46133 66.0265 8.79733 65.8398 9.068C65.6625 9.33867 65.4105 9.544 65.0838 9.684C64.7665 9.81467 64.3978 9.88 63.9778 9.88H61.9758V11H63.9778C64.6125 11 65.1771 10.8833 65.6718 10.65C66.1758 10.4073 66.5725 10.0667 66.8618 9.628C67.1605 9.18 67.3098 8.65733 67.3098 8.06C67.3098 7.45333 67.1605 6.93067 66.8618 6.492C66.5725 6.05333 66.1758 5.71733 65.6718 5.484C65.1771 5.24133 64.6125 5.12 63.9778 5.12H61.9758V6.24ZM87.4902 1.2H86.1602L83.1922 7.724L83.9342 7.78L81.0502 1.2H79.5802L82.8142 8.102L81.5542 11H82.8842L87.4902 1.2ZM93.6982 6.17C94.2395 6.17 94.7295 6.10467 95.1682 5.974C95.6162 5.84333 95.9988 5.666 96.3162 5.442C96.6335 5.20867 96.8762 4.94267 97.0442 4.644C97.2215 4.336 97.3102 4.00933 97.3102 3.664C97.3102 3.19733 97.1842 2.768 96.9322 2.376C96.6802 1.984 96.3208 1.66667 95.8542 1.424C95.3875 1.18133 94.8275 1.06 94.1742 1.06C93.5488 1.06 92.9935 1.172 92.5082 1.396C92.0322 1.61067 91.6588 1.90933 91.3882 2.292C91.1268 2.67467 90.9962 3.12267 90.9962 3.636H92.1302C92.1302 3.34667 92.2188 3.09 92.3962 2.866C92.5735 2.642 92.8162 2.46467 93.1242 2.334C93.4415 2.20333 93.7962 2.138 94.1882 2.138C94.6082 2.138 94.9582 2.20333 95.2382 2.334C95.5275 2.46467 95.7422 2.65133 95.8822 2.894C96.0222 3.12733 96.0922 3.398 96.0922 3.706C96.0922 4.014 95.9988 4.29867 95.8122 4.56C95.6255 4.812 95.3548 5.01733 95.0002 5.176C94.6455 5.32533 94.2115 5.4 93.6982 5.4V6.17ZM94.1182 11.14C94.8462 11.14 95.4668 11.028 95.9802 10.804C96.5028 10.58 96.8995 10.2627 97.1702 9.852C97.4502 9.44133 97.5902 8.96067 97.5902 8.41C97.5902 7.75667 97.4175 7.234 97.0722 6.842C96.7268 6.44067 96.2602 6.14667 95.6722 5.96C95.0842 5.77333 94.4262 5.68 93.6982 5.68V6.45C94.2115 6.45 94.6688 6.52 95.0702 6.66C95.4715 6.79067 95.7888 6.99133 96.0222 7.262C96.2555 7.53267 96.3722 7.86867 96.3722 8.27C96.3722 8.802 96.1902 9.22667 95.8262 9.544C95.4622 9.86133 94.8928 10.02 94.1182 10.02C93.6048 10.02 93.1802 9.95 92.8442 9.81C92.5175 9.67 92.2655 9.47867 92.0882 9.236C91.9202 8.99333 91.8175 8.718 91.7802 8.41H90.5762C90.5762 8.79267 90.6508 9.152 90.8002 9.488C90.9588 9.81467 91.1875 10.104 91.4862 10.356C91.7848 10.5987 92.1535 10.79 92.5922 10.93C93.0308 11.07 93.5395 11.14 94.1182 11.14ZM108.558 1.2H101.908V7.36C101.908 7.73333 101.88 8.07867 101.824 8.396C101.768 8.71333 101.684 8.99333 101.572 9.236C101.46 9.46933 101.325 9.65133 101.166 9.782C101.008 9.91267 100.821 9.978 100.606 9.978V11C101.138 11 101.582 10.846 101.936 10.538C102.3 10.23 102.571 9.81933 102.748 9.306C102.935 8.79267 103.028 8.23733 103.028 7.64V2.32H107.368V11H108.558V1.2ZM113.741 6.1C113.741 5.36267 113.9 4.70467 114.217 4.126C114.544 3.54733 114.987 3.09 115.547 2.754C116.107 2.418 116.742 2.25 117.451 2.25C118.17 2.25 118.805 2.418 119.355 2.754C119.915 3.09 120.354 3.54733 120.671 4.126C120.998 4.70467 121.161 5.36267 121.161 6.1C121.161 6.83733 120.998 7.49533 120.671 8.074C120.354 8.65267 119.915 9.11 119.355 9.446C118.805 9.782 118.17 9.95 117.451 9.95C116.742 9.95 116.107 9.782 115.547 9.446C114.987 9.11 114.544 8.65267 114.217 8.074C113.9 7.49533 113.741 6.83733 113.741 6.1ZM112.481 6.1C112.481 6.80933 112.603 7.472 112.845 8.088C113.097 8.704 113.447 9.24067 113.895 9.698C114.343 10.146 114.871 10.5007 115.477 10.762C116.084 11.014 116.742 11.14 117.451 11.14C118.17 11.14 118.828 11.014 119.425 10.762C120.032 10.5007 120.559 10.146 121.007 9.698C121.455 9.24067 121.801 8.704 122.043 8.088C122.295 7.472 122.421 6.80933 122.421 6.1C122.421 5.38133 122.295 4.71867 122.043 4.112C121.801 3.496 121.455 2.964 121.007 2.516C120.559 2.05867 120.032 1.704 119.425 1.452C118.828 1.19067 118.17 1.06 117.451 1.06C116.742 1.06 116.084 1.19067 115.477 1.452C114.871 1.704 114.343 2.05867 113.895 2.516C113.447 2.964 113.097 3.496 112.845 4.112C112.603 4.71867 112.481 5.38133 112.481 6.1ZM127.28 5.82H128.862C129.45 5.82 129.958 5.736 130.388 5.568C130.826 5.4 131.167 5.15267 131.41 4.826C131.652 4.49933 131.774 4.10733 131.774 3.65C131.774 3.09 131.652 2.63267 131.41 2.278C131.167 1.914 130.826 1.64333 130.388 1.466C129.958 1.28867 129.45 1.2 128.862 1.2H126.342V11H129.002C129.636 11 130.201 10.8973 130.696 10.692C131.2 10.4773 131.596 10.16 131.886 9.74C132.184 9.31067 132.334 8.774 132.334 8.13C132.334 7.682 132.25 7.29467 132.082 6.968C131.914 6.64133 131.676 6.37533 131.368 6.17C131.069 5.95533 130.719 5.79667 130.318 5.694C129.916 5.59133 129.478 5.54 129.002 5.54H127.28V6.198H129.002C129.319 6.198 129.608 6.24 129.87 6.324C130.131 6.39867 130.355 6.51533 130.542 6.674C130.738 6.83267 130.887 7.02867 130.99 7.262C131.092 7.49533 131.144 7.76133 131.144 8.06C131.144 8.46133 131.05 8.802 130.864 9.082C130.686 9.362 130.434 9.57667 130.108 9.726C129.79 9.87533 129.422 9.95 129.002 9.95H127.532V2.25H128.862C129.356 2.25 129.767 2.38067 130.094 2.642C130.42 2.894 130.584 3.25333 130.584 3.72C130.584 4.028 130.509 4.28933 130.36 4.504C130.21 4.71867 130.005 4.882 129.744 4.994C129.482 5.106 129.188 5.162 128.862 5.162H127.28V5.82Z" fill="#676A70"/>
</svg>
